<mxfile host="65bd71144e">
    <diagram id="Pwh17KiYS3t1jNNCGKba" name="Page-1">
        <mxGraphModel dx="2628" dy="834" grid="1" gridSize="10" guides="1" tooltips="1" connect="1" arrows="1" fold="1" page="1" pageScale="1" pageWidth="1169" pageHeight="827" background="#E3D3D8" math="0" shadow="0">
            <root>
                <mxCell id="0"/>
                <mxCell id="1" parent="0"/>
                <mxCell id="58" value="" style="rounded=1;whiteSpace=wrap;html=1;shadow=0;strokeWidth=3;fontColor=#000000;opacity=70;" parent="1" vertex="1">
                    <mxGeometry x="359" y="207" width="450.87" height="380" as="geometry"/>
                </mxCell>
                <mxCell id="67" value="&lt;font style=&quot;font-size: 30px;&quot; color=&quot;#000000&quot;&gt;Signin Functionality&lt;br&gt;&lt;/font&gt;" style="text;html=1;align=center;verticalAlign=middle;resizable=0;points=[];autosize=1;strokeColor=none;fillColor=#d8c9ce;shadow=0;strokeWidth=3;fontStyle=1" parent="1" vertex="1">
                    <mxGeometry x="430" y="40" width="310" height="50" as="geometry"/>
                </mxCell>
                <mxCell id="81" value="Actor" style="shape=umlActor;verticalLabelPosition=bottom;verticalAlign=top;html=1;outlineConnect=0;strokeColor=#000000;strokeWidth=4;fontColor=#000000;" parent="1" vertex="1">
                    <mxGeometry x="110" y="401" width="110" height="220" as="geometry"/>
                </mxCell>
                <mxCell id="85" value="Check email used and passwords are equal" style="rounded=0;whiteSpace=wrap;html=1;strokeColor=none;strokeWidth=4;" parent="1" vertex="1">
                    <mxGeometry x="454.43" y="267" width="260" height="60" as="geometry"/>
                </mxCell>
                <mxCell id="87" value="" style="shape=flexArrow;endArrow=classic;html=1;fillColor=default;endWidth=11;endSize=6.63;width=8;" parent="1" edge="1">
                    <mxGeometry width="50" height="50" relative="1" as="geometry">
                        <mxPoint x="583.93" y="337" as="sourcePoint"/>
                        <mxPoint x="584.43" y="377" as="targetPoint"/>
                    </mxGeometry>
                </mxCell>
                <mxCell id="94" value="" style="shape=flexArrow;endArrow=classic;html=1;fillColor=default;endWidth=11;endSize=6.63;width=8;" parent="1" edge="1">
                    <mxGeometry width="50" height="50" relative="1" as="geometry">
                        <mxPoint x="583.93" y="457" as="sourcePoint"/>
                        <mxPoint x="584.43" y="497" as="targetPoint"/>
                    </mxGeometry>
                </mxCell>
                <mxCell id="97" value="Send request&lt;br&gt;(username, email (unique), password)" style="rounded=0;whiteSpace=wrap;html=1;strokeColor=none;strokeWidth=4;" parent="1" vertex="1">
                    <mxGeometry x="454.43" y="387" width="260" height="60" as="geometry"/>
                </mxCell>
                <mxCell id="98" value="Encrypt password and persist data to DB" style="rounded=0;whiteSpace=wrap;html=1;strokeColor=none;strokeWidth=4;" parent="1" vertex="1">
                    <mxGeometry x="454.43" y="507" width="260" height="60" as="geometry"/>
                </mxCell>
                <mxCell id="101" value="&lt;b&gt;Sign in&lt;br&gt;&lt;/b&gt;" style="text;html=1;align=center;verticalAlign=middle;resizable=0;points=[];autosize=1;strokeColor=none;fillColor=#999999;fontColor=#000000;labelBackgroundColor=none;labelBorderColor=none;" parent="1" vertex="1">
                    <mxGeometry x="554.43" y="217" width="60" height="30" as="geometry"/>
                </mxCell>
                <mxCell id="103" value="" style="rounded=1;whiteSpace=wrap;html=1;shadow=0;strokeWidth=3;fontColor=#000000;opacity=70;" parent="1" vertex="1">
                    <mxGeometry x="-80" y="20" width="370.87" height="200" as="geometry"/>
                </mxCell>
                <mxCell id="106" value="&lt;b&gt;Security&lt;br&gt;LoginFilter&lt;br&gt;&lt;/b&gt;" style="text;html=1;align=center;verticalAlign=middle;resizable=0;points=[];autosize=1;strokeColor=none;fillColor=#999999;fontColor=#000000;labelBackgroundColor=none;labelBorderColor=none;" parent="1" vertex="1">
                    <mxGeometry x="60.439999999999934" y="30" width="90" height="40" as="geometry"/>
                </mxCell>
                <mxCell id="108" value="if get Session" style="rounded=0;whiteSpace=wrap;html=1;strokeColor=none;strokeWidth=4;" parent="1" vertex="1">
                    <mxGeometry x="-38.91" y="90" width="94.56" height="60" as="geometry"/>
                </mxCell>
                <mxCell id="109" value="" style="shape=flexArrow;endArrow=classic;html=1;fillColor=default;endWidth=11;endSize=6.63;width=8;" parent="1" edge="1">
                    <mxGeometry width="50" height="50" relative="1" as="geometry">
                        <mxPoint x="65.64999999999988" y="119.5" as="sourcePoint"/>
                        <mxPoint x="145.65" y="119.5" as="targetPoint"/>
                    </mxGeometry>
                </mxCell>
                <mxCell id="111" value="redirect to&lt;br&gt;main-dashboard" style="rounded=0;whiteSpace=wrap;html=1;strokeColor=none;strokeWidth=4;" parent="1" vertex="1">
                    <mxGeometry x="155.21" y="90" width="94.56" height="60" as="geometry"/>
                </mxCell>
                <mxCell id="113" value="" style="shape=flexArrow;endArrow=classic;html=1;fillColor=default;endWidth=24;endSize=15;" parent="1" edge="1">
                    <mxGeometry width="50" height="50" relative="1" as="geometry">
                        <mxPoint x="240" y="477" as="sourcePoint"/>
                        <mxPoint x="429.77" y="297" as="targetPoint"/>
                        <Array as="points">
                            <mxPoint x="320" y="477"/>
                            <mxPoint x="319.77" y="297"/>
                        </Array>
                    </mxGeometry>
                </mxCell>
                <mxCell id="114" value="" style="shape=flexArrow;endArrow=classic;html=1;fillColor=default;endWidth=24;endSize=15;" parent="1" edge="1">
                    <mxGeometry width="50" height="50" relative="1" as="geometry">
                        <mxPoint x="735" y="537" as="sourcePoint"/>
                        <mxPoint x="950" y="417" as="targetPoint"/>
                        <Array as="points">
                            <mxPoint x="845" y="537"/>
                            <mxPoint x="845" y="417"/>
                        </Array>
                    </mxGeometry>
                </mxCell>
                <mxCell id="116" value="redirect to&lt;br&gt;welcome-page" style="rounded=0;whiteSpace=wrap;html=1;strokeColor=none;strokeWidth=4;" parent="1" vertex="1">
                    <mxGeometry x="980" y="387" width="94.56" height="60" as="geometry"/>
                </mxCell>
                <mxCell id="117" value="&lt;b&gt;use != /app/*&lt;br&gt;&lt;/b&gt;" style="text;html=1;align=center;verticalAlign=middle;resizable=0;points=[];autosize=1;strokeColor=none;fillColor=#999999;fontColor=#000000;labelBackgroundColor=none;labelBorderColor=none;" parent="1" vertex="1">
                    <mxGeometry x="55.64999999999994" y="175" width="90" height="30" as="geometry"/>
                </mxCell>
                <mxCell id="118" value="" style="rounded=1;whiteSpace=wrap;html=1;shadow=0;strokeWidth=3;fontColor=#000000;opacity=70;" parent="1" vertex="1">
                    <mxGeometry x="840.59" y="554" width="278.83" height="235" as="geometry"/>
                </mxCell>
                <mxCell id="119" value="" style="shape=flexArrow;endArrow=classic;html=1;fillColor=#ED0036;strokeColor=none;endWidth=38;endSize=10.4;" parent="1" edge="1">
                    <mxGeometry width="50" height="50" relative="1" as="geometry">
                        <mxPoint x="800" y="567" as="sourcePoint"/>
                        <mxPoint x="880" y="630" as="targetPoint"/>
                    </mxGeometry>
                </mxCell>
                <mxCell id="120" value="Alert: &quot;Email is already used&quot; || &quot;Password are different&quot;" style="rounded=0;whiteSpace=wrap;html=1;" parent="1" vertex="1">
                    <mxGeometry x="920" y="580" width="120" height="60" as="geometry"/>
                </mxCell>
                <mxCell id="121" value="OR" style="text;html=1;align=center;verticalAlign=middle;resizable=0;points=[];autosize=1;strokeColor=none;fillColor=none;fontStyle=1;fontColor=#FFFFFF;fontSize=17;" parent="1" vertex="1">
                    <mxGeometry x="955" y="656.5" width="50" height="30" as="geometry"/>
                </mxCell>
                <mxCell id="122" value="Alert: &quot;DataBase Connection failed&quot;" style="rounded=0;whiteSpace=wrap;html=1;" parent="1" vertex="1">
                    <mxGeometry x="920.01" y="700" width="120" height="60" as="geometry"/>
                </mxCell>
            </root>
        </mxGraphModel>
    </diagram>
</mxfile>